<svg xmlns="http://www.w3.org/2000/svg" version="1.1" xmlns:xlink="http://www.w3.org/1999/xlink" xmlns:svgjs="http://svgjs.dev/svgjs" width="1000" height="750" viewBox="0 0 1000 750"><rect width="1000" height="750" fill="#000000"></rect><g transform="matrix(0.22706065318818042,0,0,0.22706065318818042,386.9588555503059,83.23643724696353)"><svg viewBox="0 0 96 247" data-background-color="#000000" preserveAspectRatio="xMidYMid meet" height="2572" width="1000" xmlns="http://www.w3.org/2000/svg" xmlns:xlink="http://www.w3.org/1999/xlink"><g id="tight-bounds" transform="matrix(1,0,0,1,-0.20682353020055189,-0.09999999999999432)"><svg viewBox="0 0 96.41364706040115 247.2" height="247.2" width="96.41364706040115"><g><svg viewBox="0 0 190.88621796342744 489.4231731634168" height="247.2" width="96.41364706040115"><g></g><g transform="matrix(1,0,0,1,0.4748413382174732,242.22317316341682)"><svg viewBox="0 0 189.9365352869925 247.2" height="247.2" width="189.9365352869925"><g id="textblocktransform"><svg viewBox="0 0 189.9365352869925 247.2" height="247.2" width="189.9365352869925" id="textblock"><g><svg viewBox="0 0 189.9365352869925 247.2" height="247.2" width="189.9365352869925"><g transform="matrix(1,0,0,1,0,0)"><svg width="189.9365352869925" viewBox="2.185129222847999 -33.47 25.894870777152 33.690355231107" height="247.2" data-palette-color="url(#42b22a0b-9c51-400c-a157-261dbecd2bd4)"></svg></g></svg></g></svg></g></svg></g><g transform="matrix(1,0,0,1,36.752719578033044,0)"><svg viewBox="0 0 117.38077880736135 103.21444765301683" height="103.21444765301683" width="117.38077880736135"><g><svg xmlns="http://www.w3.org/2000/svg" xmlns:xlink="http://www.w3.org/1999/xlink" version="1.1" x="8" y="0" viewBox="2.094 2.0059363373068235 45.93228875747885 46.76306366269318" enable-background="new 0 0 50 50" xml:space="preserve" height="103.21444765301683" width="101.38077880736135" class="icon-icon-0" data-fill-palette-color="accent" id="icon-0"><path fill="none" stroke="url(#1d4e8a89-9497-486c-90bb-e42d3edc6ddf)" stroke-miterlimit="10" d="M47.293 17.929C46.626 17.649 45.603 18.225 45.603 18.225S45.312 18.041 45.11 17.929 44.208 18.054 44.234 18.58C44.267 19.253 45.62 20.227 44.595 20.675 43.001 21.372 39.878 20.876 38.625 21.242 36.001 17.045 39.328 13.155 34.219 10.39L34.578 9.656C35.315 9.848 35.49 10.397 36.547 10.424 38.42 10.472 39.494 7.449 39.232 5.202 39.02 3.389 37.253 1.819 35.209 2.024S31.605 4.23 31.918 6.47C32.106 7.816 31.305 9.435 29.406 9.183 26.066 8.74 25.374 9.955 20.528 11.193 19.977 11.334 19.468 11.671 19.248 12.239 18.724 13.593 17.231 20.667 17.278 21.796 17.326 22.908 19.792 23.607 20.339 23.132S20.943 21.533 20.943 21.533 21.583 21.533 21.655 21.097C21.692 20.868 21.735 20.421 21.051 20.111 20.582 19.899 19.378 20.846 19.588 19.336S21.138 16.876 21.74 14.131C24.402 14.408 24.442 13.506 26.262 13.494 25.387 16.849 28.417 22.443 25.465 23.629 21.089 25.386 21.347 29.112 21.347 29.112S19.496 30.55 15.745 31.951C14.04 30.091 10.727 30.602 8.404 29.718 6.711 29.073 5.993 26.505 4.905 28.601 4.145 30.064 2.094 34.071 2.094 34.071 3.349 34.893 6.387 31.043 6.387 31.043L9.8 33.217C11.183 34.086 12.504 35.062 13.917 35.885 15.364 36.728 21.11 36.075 27.39 31.38 33.38 33.943 36.906 32.503 39.481 33.998 37.744 38.319 38.534 42.316 38.534 44.398S36.092 48.769 39.067 48.769H46.015C45.945 46.904 40.753 46.707 40.786 45.135 40.814 43.764 43.229 35.686 43.727 33.49 44.004 32.266 40.724 27.791 31.68 26.103 32.53 24.533 33.68 20.52 33.776 18.648 34.512 21.707 36.426 23.93 36.426 23.93 36.755 24.313 37.259 24.524 37.803 24.483 39.54 24.354 44.622 23.992 47.542 21.717 48.421 21.035 47.96 18.208 47.293 17.929z"></path><path fill="none" stroke="url(#1d4e8a89-9497-486c-90bb-e42d3edc6ddf)" stroke-miterlimit="10" d="M43.728 33.491"></path></svg></g></svg></g><g></g></svg></g><defs></defs><mask id="b348c029-a29b-4a58-91b9-ae86cb5aa679"><g id="SvgjsG5864"><svg viewBox="0 0 96.41364706040115 247.2" height="247.2" width="96.41364706040115"><g><svg viewBox="0 0 190.88621796342744 489.4231731634168" height="247.2" width="96.41364706040115"><g><rect width="190.88621796342744" height="22.292751110399998" x="0" y="161.57243485301683" fill="black" opacity="1" stroke-width="0" stroke="transparent" fill-opacity="1" class="rect-yte-0" rx="1%" id="SvgjsRect5863" data-palette-color="url(#3628cad8-cc4a-4252-b85a-7becdb810a06)"></rect></g><g transform="matrix(1,0,0,1,0.4748413382174732,242.22317316341682)"><svg viewBox="0 0 189.9365352869925 247.2" height="247.2" width="189.9365352869925"><g id="SvgjsG5862"><svg viewBox="0 0 189.9365352869925 247.2" height="247.2" width="189.9365352869925" id="SvgjsSvg5861"><g><svg viewBox="0 0 189.9365352869925 247.2" height="247.2" width="189.9365352869925"><g transform="matrix(1,0,0,1,0,0)"><svg width="189.9365352869925" viewBox="2.185129222847999 -33.47 25.894870777152 33.690355231107" height="247.2" data-palette-color="url(#42b22a0b-9c51-400c-a157-261dbecd2bd4)"><path d="M13.87-3.86L13.87-3.86Q13.87-4.44 13.92-5.03 13.96-5.62 13.96-6.25L13.96-6.25Q13.96-7.03 13.88-7.8 13.79-8.57 13.7-9.35 13.6-10.13 13.51-10.94 13.43-11.74 13.43-12.57L13.43-12.57Q13.43-13.89 13.32-15.19 13.21-16.48 13.09-17.8 12.96-19.12 12.85-20.47 12.74-21.83 12.72-23.24L12.72-23.24 12.67-28.39Q11.89-28.37 10.96-28.26 10.03-28.15 9.07-28.02 8.11-27.88 7.12-27.78 6.13-27.69 5.25-27.69L5.25-27.69Q3.64-27.69 2.94-28.06 2.25-28.44 2.2-29.22L2.2-29.22Q2.12-30.27 2.47-30.93 2.81-31.59 3.37-31.97 3.93-32.35 4.65-32.5 5.37-32.64 6.05-32.64L6.05-32.64Q9.67-32.64 13.34-32.79 17.02-32.93 20.92-32.93L20.92-32.93Q21.48-32.93 22.05-33.02 22.61-33.11 23.18-33.2 23.75-33.3 24.33-33.39 24.9-33.47 25.51-33.47L25.51-33.47Q26.1-33.47 26.56-33.2 27.03-32.93 27.37-32.51 27.71-32.08 27.89-31.53 28.08-30.98 28.08-30.42L28.08-30.42Q28.08-30.08 27.86-29.63 27.64-29.17 27.27-28.76 26.9-28.34 26.44-28.06 25.98-27.78 25.51-27.78L25.51-27.78Q24.95-27.78 24.49-27.97 24.02-28.15 23.62-28.38 23.22-28.61 22.88-28.8 22.53-28.98 22.24-28.98L22.24-28.98Q22-28.98 21.3-28.97 20.61-28.96 19.79-28.93 18.97-28.91 18.23-28.86 17.48-28.81 17.11-28.74L17.11-28.74 17.11-28.2Q17.11-27.81 17.13-26.99 17.14-26.17 17.14-24.63L17.14-24.63Q17.14-22.17 17.32-19.71 17.5-17.26 17.82-14.75L17.82-14.75Q17.97-12.35 18.05-9.96 18.14-7.57 18.48-5.08L18.48-5.08Q18.51-4.88 18.63-4.44 18.75-4 18.87-3.5 18.99-3 19.1-2.54 19.21-2.08 19.21-1.86L19.21-1.86Q19.21-1.29 19.14-0.92 19.07-0.54 18.82-0.29 18.58-0.05 18.12 0.07 17.65 0.2 16.89 0.22L16.89 0.22Q15.82 0.27 15.21-0.05 14.6-0.37 14.31-0.94 14.01-1.51 13.94-2.27 13.87-3.03 13.87-3.86Z" opacity="1" transform="matrix(1,0,0,1,0,0)" fill="white" class="wordmark-text-0" id="SvgjsPath5860"></path></svg></g></svg></g></svg></g></svg></g><g transform="matrix(1,0,0,1,36.752719578033044,0)"><svg viewBox="0 0 117.38077880736135 103.21444765301683" height="103.21444765301683" width="117.38077880736135"><g><svg xmlns="http://www.w3.org/2000/svg" xmlns:xlink="http://www.w3.org/1999/xlink" version="1.1" x="8" y="0" viewBox="2.094 2.0059363373068235 45.93228875747885 46.76306366269318" enable-background="new 0 0 50 50" xml:space="preserve" height="103.21444765301683" width="101.38077880736135" class="icon-icon-0" data-fill-palette-color="accent" id="SvgjsSvg5859"><path fill="black" stroke="url(#1d4e8a89-9497-486c-90bb-e42d3edc6ddf)" stroke-miterlimit="10" d="M47.293 17.929C46.626 17.649 45.603 18.225 45.603 18.225S45.312 18.041 45.11 17.929 44.208 18.054 44.234 18.58C44.267 19.253 45.62 20.227 44.595 20.675 43.001 21.372 39.878 20.876 38.625 21.242 36.001 17.045 39.328 13.155 34.219 10.39L34.578 9.656C35.315 9.848 35.49 10.397 36.547 10.424 38.42 10.472 39.494 7.449 39.232 5.202 39.02 3.389 37.253 1.819 35.209 2.024S31.605 4.23 31.918 6.47C32.106 7.816 31.305 9.435 29.406 9.183 26.066 8.74 25.374 9.955 20.528 11.193 19.977 11.334 19.468 11.671 19.248 12.239 18.724 13.593 17.231 20.667 17.278 21.796 17.326 22.908 19.792 23.607 20.339 23.132S20.943 21.533 20.943 21.533 21.583 21.533 21.655 21.097C21.692 20.868 21.735 20.421 21.051 20.111 20.582 19.899 19.378 20.846 19.588 19.336S21.138 16.876 21.74 14.131C24.402 14.408 24.442 13.506 26.262 13.494 25.387 16.849 28.417 22.443 25.465 23.629 21.089 25.386 21.347 29.112 21.347 29.112S19.496 30.55 15.745 31.951C14.04 30.091 10.727 30.602 8.404 29.718 6.711 29.073 5.993 26.505 4.905 28.601 4.145 30.064 2.094 34.071 2.094 34.071 3.349 34.893 6.387 31.043 6.387 31.043L9.8 33.217C11.183 34.086 12.504 35.062 13.917 35.885 15.364 36.728 21.11 36.075 27.39 31.38 33.38 33.943 36.906 32.503 39.481 33.998 37.744 38.319 38.534 42.316 38.534 44.398S36.092 48.769 39.067 48.769H46.015C45.945 46.904 40.753 46.707 40.786 45.135 40.814 43.764 43.229 35.686 43.727 33.49 44.004 32.266 40.724 27.791 31.68 26.103 32.53 24.533 33.68 20.52 33.776 18.648 34.512 21.707 36.426 23.93 36.426 23.93 36.755 24.313 37.259 24.524 37.803 24.483 39.54 24.354 44.622 23.992 47.542 21.717 48.421 21.035 47.96 18.208 47.293 17.929z"></path><path fill="black" stroke="url(#1d4e8a89-9497-486c-90bb-e42d3edc6ddf)" stroke-miterlimit="10" d="M43.728 33.491"></path></svg></g></svg></g><g></g></svg></g><defs><mask></mask></defs></svg><rect width="96.41364706040115" height="247.2" fill="black" stroke="none" visibility="hidden"></rect></g></mask><linearGradient x1="0.054" x2="0.941" y1="0.5" y2="0.5" id="42b22a0b-9c51-400c-a157-261dbecd2bd4"><stop stop-color="#0f3054" offset="0"></stop><stop stop-color="#3b8dcb" offset="0.498"></stop><stop stop-color="#0f3054" offset="1"></stop></linearGradient><rect width="96.41364706040115" height="247.2" fill="url(#42b22a0b-9c51-400c-a157-261dbecd2bd4)" mask="url(#b348c029-a29b-4a58-91b9-ae86cb5aa679)" data-fill-palette-color="primary"></rect><mask id="eb45a314-6f5c-42e8-a111-b22cb31a85bd"><g id="SvgjsG5875"><svg viewBox="0 0 96.41364706040115 247.2" height="247.2" width="96.41364706040115"><g><svg viewBox="0 0 190.88621796342744 489.4231731634168" height="247.2" width="96.41364706040115"><g><rect width="190.88621796342744" height="22.292751110399998" x="0" y="161.57243485301683" fill="white" opacity="1" stroke-width="0" stroke="transparent" fill-opacity="1" class="rect-yte-0" rx="1%" id="SvgjsRect5874" data-palette-color="url(#3628cad8-cc4a-4252-b85a-7becdb810a06)"></rect></g><g transform="matrix(1,0,0,1,0.4748413382174732,242.22317316341682)"><svg viewBox="0 0 189.9365352869925 247.2" height="247.2" width="189.9365352869925"><g id="SvgjsG5873"><svg viewBox="0 0 189.9365352869925 247.2" height="247.2" width="189.9365352869925" id="SvgjsSvg5872"><g><svg viewBox="0 0 189.9365352869925 247.2" height="247.2" width="189.9365352869925"><g transform="matrix(1,0,0,1,0,0)"><svg width="189.9365352869925" viewBox="2.185129222847999 -33.47 25.894870777152 33.690355231107" height="247.2" data-palette-color="url(#42b22a0b-9c51-400c-a157-261dbecd2bd4)"></svg></g></svg></g></svg></g></svg></g><g transform="matrix(1,0,0,1,36.752719578033044,0)"><svg viewBox="0 0 117.38077880736135 103.21444765301683" height="103.21444765301683" width="117.38077880736135"><g><svg xmlns="http://www.w3.org/2000/svg" xmlns:xlink="http://www.w3.org/1999/xlink" version="1.1" x="8" y="0" viewBox="2.094 2.0059363373068235 45.93228875747885 46.76306366269318" enable-background="new 0 0 50 50" xml:space="preserve" height="103.21444765301683" width="101.38077880736135" class="icon-icon-0" data-fill-palette-color="accent" id="SvgjsSvg5871"><path fill="black" stroke="url(#1d4e8a89-9497-486c-90bb-e42d3edc6ddf)" stroke-miterlimit="10" d="M47.293 17.929C46.626 17.649 45.603 18.225 45.603 18.225S45.312 18.041 45.11 17.929 44.208 18.054 44.234 18.58C44.267 19.253 45.62 20.227 44.595 20.675 43.001 21.372 39.878 20.876 38.625 21.242 36.001 17.045 39.328 13.155 34.219 10.39L34.578 9.656C35.315 9.848 35.49 10.397 36.547 10.424 38.42 10.472 39.494 7.449 39.232 5.202 39.02 3.389 37.253 1.819 35.209 2.024S31.605 4.23 31.918 6.47C32.106 7.816 31.305 9.435 29.406 9.183 26.066 8.74 25.374 9.955 20.528 11.193 19.977 11.334 19.468 11.671 19.248 12.239 18.724 13.593 17.231 20.667 17.278 21.796 17.326 22.908 19.792 23.607 20.339 23.132S20.943 21.533 20.943 21.533 21.583 21.533 21.655 21.097C21.692 20.868 21.735 20.421 21.051 20.111 20.582 19.899 19.378 20.846 19.588 19.336S21.138 16.876 21.74 14.131C24.402 14.408 24.442 13.506 26.262 13.494 25.387 16.849 28.417 22.443 25.465 23.629 21.089 25.386 21.347 29.112 21.347 29.112S19.496 30.55 15.745 31.951C14.04 30.091 10.727 30.602 8.404 29.718 6.711 29.073 5.993 26.505 4.905 28.601 4.145 30.064 2.094 34.071 2.094 34.071 3.349 34.893 6.387 31.043 6.387 31.043L9.8 33.217C11.183 34.086 12.504 35.062 13.917 35.885 15.364 36.728 21.11 36.075 27.39 31.38 33.38 33.943 36.906 32.503 39.481 33.998 37.744 38.319 38.534 42.316 38.534 44.398S36.092 48.769 39.067 48.769H46.015C45.945 46.904 40.753 46.707 40.786 45.135 40.814 43.764 43.229 35.686 43.727 33.49 44.004 32.266 40.724 27.791 31.68 26.103 32.53 24.533 33.68 20.52 33.776 18.648 34.512 21.707 36.426 23.93 36.426 23.93 36.755 24.313 37.259 24.524 37.803 24.483 39.54 24.354 44.622 23.992 47.542 21.717 48.421 21.035 47.96 18.208 47.293 17.929z"></path><path fill="black" stroke="url(#1d4e8a89-9497-486c-90bb-e42d3edc6ddf)" stroke-miterlimit="10" d="M43.728 33.491"></path></svg></g></svg></g><g></g></svg></g><defs><mask></mask></defs><mask><g id="SvgjsG5870"><svg viewBox="0 0 96.41364706040115 247.2" height="247.2" width="96.41364706040115"><g><svg viewBox="0 0 190.88621796342744 489.4231731634168" height="247.2" width="96.41364706040115"><g><rect width="190.88621796342744" height="22.292751110399998" x="0" y="161.57243485301683" fill="black" opacity="1" stroke-width="0" stroke="transparent" fill-opacity="1" class="rect-yte-0" rx="1%" id="SvgjsRect5869" data-palette-color="url(#3628cad8-cc4a-4252-b85a-7becdb810a06)"></rect></g><g transform="matrix(1,0,0,1,0.4748413382174732,242.22317316341682)"><svg viewBox="0 0 189.9365352869925 247.2" height="247.2" width="189.9365352869925"><g id="SvgjsG5868"><svg viewBox="0 0 189.9365352869925 247.2" height="247.2" width="189.9365352869925" id="SvgjsSvg5867"><g><svg viewBox="0 0 189.9365352869925 247.2" height="247.2" width="189.9365352869925"><g transform="matrix(1,0,0,1,0,0)"><svg width="189.9365352869925" viewBox="2.185129222847999 -33.47 25.894870777152 33.690355231107" height="247.2" data-palette-color="url(#42b22a0b-9c51-400c-a157-261dbecd2bd4)"><path d="M13.87-3.86L13.87-3.86Q13.87-4.44 13.92-5.03 13.96-5.62 13.96-6.25L13.96-6.25Q13.96-7.03 13.88-7.8 13.79-8.57 13.7-9.35 13.6-10.13 13.51-10.94 13.43-11.74 13.43-12.57L13.43-12.57Q13.43-13.89 13.32-15.19 13.21-16.48 13.09-17.8 12.96-19.12 12.85-20.47 12.74-21.83 12.72-23.24L12.72-23.24 12.67-28.39Q11.89-28.37 10.96-28.26 10.03-28.15 9.07-28.02 8.11-27.88 7.12-27.78 6.13-27.69 5.25-27.69L5.25-27.69Q3.64-27.69 2.94-28.06 2.25-28.44 2.2-29.22L2.2-29.22Q2.12-30.27 2.47-30.93 2.81-31.59 3.37-31.97 3.93-32.35 4.65-32.5 5.37-32.64 6.05-32.64L6.05-32.64Q9.67-32.64 13.34-32.79 17.02-32.93 20.92-32.93L20.92-32.93Q21.48-32.93 22.05-33.02 22.61-33.11 23.18-33.2 23.75-33.3 24.33-33.39 24.9-33.47 25.51-33.47L25.51-33.47Q26.1-33.47 26.56-33.2 27.03-32.93 27.37-32.51 27.71-32.08 27.89-31.53 28.08-30.98 28.08-30.42L28.08-30.42Q28.08-30.08 27.86-29.63 27.64-29.17 27.27-28.76 26.9-28.34 26.44-28.06 25.98-27.78 25.51-27.78L25.51-27.78Q24.95-27.78 24.49-27.97 24.02-28.15 23.62-28.38 23.22-28.61 22.88-28.8 22.53-28.98 22.24-28.98L22.24-28.98Q22-28.98 21.3-28.97 20.61-28.96 19.79-28.93 18.97-28.91 18.23-28.86 17.48-28.81 17.11-28.74L17.11-28.74 17.11-28.2Q17.11-27.81 17.13-26.99 17.14-26.17 17.14-24.63L17.14-24.63Q17.14-22.17 17.32-19.71 17.5-17.26 17.82-14.75L17.82-14.75Q17.97-12.35 18.05-9.96 18.14-7.57 18.48-5.08L18.48-5.08Q18.51-4.88 18.63-4.44 18.75-4 18.87-3.5 18.99-3 19.1-2.54 19.21-2.08 19.21-1.86L19.21-1.86Q19.21-1.29 19.14-0.92 19.07-0.54 18.82-0.29 18.58-0.05 18.12 0.07 17.65 0.2 16.89 0.22L16.89 0.22Q15.82 0.27 15.21-0.05 14.6-0.37 14.31-0.94 14.01-1.51 13.94-2.27 13.87-3.03 13.87-3.86Z" opacity="1" transform="matrix(1,0,0,1,0,0)" fill="black" class="wordmark-text-0" id="SvgjsPath5866"></path></svg></g></svg></g></svg></g></svg></g><g transform="matrix(1,0,0,1,36.752719578033044,0)"><svg viewBox="0 0 117.38077880736135 103.21444765301683" height="103.21444765301683" width="117.38077880736135"><g><svg xmlns="http://www.w3.org/2000/svg" xmlns:xlink="http://www.w3.org/1999/xlink" version="1.1" x="8" y="0" viewBox="2.094 2.0059363373068235 45.93228875747885 46.76306366269318" enable-background="new 0 0 50 50" xml:space="preserve" height="103.21444765301683" width="101.38077880736135" class="icon-icon-0" data-fill-palette-color="accent" id="SvgjsSvg5865"><path fill="black" stroke="url(#1d4e8a89-9497-486c-90bb-e42d3edc6ddf)" stroke-miterlimit="10" d="M47.293 17.929C46.626 17.649 45.603 18.225 45.603 18.225S45.312 18.041 45.11 17.929 44.208 18.054 44.234 18.58C44.267 19.253 45.62 20.227 44.595 20.675 43.001 21.372 39.878 20.876 38.625 21.242 36.001 17.045 39.328 13.155 34.219 10.39L34.578 9.656C35.315 9.848 35.49 10.397 36.547 10.424 38.42 10.472 39.494 7.449 39.232 5.202 39.02 3.389 37.253 1.819 35.209 2.024S31.605 4.23 31.918 6.47C32.106 7.816 31.305 9.435 29.406 9.183 26.066 8.74 25.374 9.955 20.528 11.193 19.977 11.334 19.468 11.671 19.248 12.239 18.724 13.593 17.231 20.667 17.278 21.796 17.326 22.908 19.792 23.607 20.339 23.132S20.943 21.533 20.943 21.533 21.583 21.533 21.655 21.097C21.692 20.868 21.735 20.421 21.051 20.111 20.582 19.899 19.378 20.846 19.588 19.336S21.138 16.876 21.74 14.131C24.402 14.408 24.442 13.506 26.262 13.494 25.387 16.849 28.417 22.443 25.465 23.629 21.089 25.386 21.347 29.112 21.347 29.112S19.496 30.55 15.745 31.951C14.04 30.091 10.727 30.602 8.404 29.718 6.711 29.073 5.993 26.505 4.905 28.601 4.145 30.064 2.094 34.071 2.094 34.071 3.349 34.893 6.387 31.043 6.387 31.043L9.8 33.217C11.183 34.086 12.504 35.062 13.917 35.885 15.364 36.728 21.11 36.075 27.39 31.38 33.38 33.943 36.906 32.503 39.481 33.998 37.744 38.319 38.534 42.316 38.534 44.398S36.092 48.769 39.067 48.769H46.015C45.945 46.904 40.753 46.707 40.786 45.135 40.814 43.764 43.229 35.686 43.727 33.49 44.004 32.266 40.724 27.791 31.68 26.103 32.53 24.533 33.68 20.52 33.776 18.648 34.512 21.707 36.426 23.93 36.426 23.93 36.755 24.313 37.259 24.524 37.803 24.483 39.54 24.354 44.622 23.992 47.542 21.717 48.421 21.035 47.96 18.208 47.293 17.929z"></path><path fill="black" stroke="url(#1d4e8a89-9497-486c-90bb-e42d3edc6ddf)" stroke-miterlimit="10" d="M43.728 33.491"></path></svg></g></svg></g><g></g></svg></g><defs><mask></mask></defs></svg><rect width="96.41364706040115" height="247.2" fill="black" stroke="none" visibility="hidden"></rect></g></mask></svg><rect width="96.41364706040115" height="247.2" fill="black" stroke="none" visibility="hidden"></rect></g></mask><linearGradient x1="0.054" x2="0.941" y1="0.5" y2="0.5" id="3628cad8-cc4a-4252-b85a-7becdb810a06"><stop stop-color="#0f3054" offset="0"></stop><stop stop-color="#3b8dcb" offset="0.498"></stop><stop stop-color="#0f3054" offset="1"></stop></linearGradient><rect width="96.41364706040115" height="247.2" fill="url(#3628cad8-cc4a-4252-b85a-7becdb810a06)" mask="url(#eb45a314-6f5c-42e8-a111-b22cb31a85bd)" data-fill-palette-color="secondary"></rect></svg><rect width="96.41364706040115" height="247.2" fill="none" stroke="none" visibility="hidden"></rect></g></svg></g></svg>